# xmcd
#
# Track frame offsets: 
#        150
#        14007
#        27207
#        43137
#        56017
#        71215
#        84775
#        98002
#        112110
#        128792
#
# Disc length: 1875 seconds
#
# Revision: 2
# Processed by: cddbd v1.4PL0 Copyright (c) Steve Scherf et al.
# Submitted via: ExactAudioCopy v0.90b3
#
DISCID=8507510a
DTITLE=Mac Davis - I Sing The Hits
DYEAR=1900
DGENRE=Country
TTITLE0=Baby Don't Get Hooked On Me
TTITLE1=Burnin' Thing
TTITLE2=I Believe In Music
TTITLE3=One Hell Of A Woman
TTITLE4=Honeysuckle Magic
TTITLE5=Soft, Sweet Fire
TTITLE6=Stop And Smell The Roses
TTITLE7=Watchin' Scotty Grow
TTITLE8=Picking Up The Pieces Of My Life
TTITLE9=In The Getto
EXTD=
EXTT0=
EXTT1=
EXTT2=
EXTT3=
EXTT4=
EXTT5=
EXTT6=
EXTT7=
EXTT8=
EXTT9=
PLAYORDER=
